<?xml version="1.0" encoding="UTF-8"?><svg id="Layer_2" xmlns="http://www.w3.org/2000/svg" viewBox="0 0 539.22 119.71"><defs><style>.cls-1{fill:#0028c8;}.cls-2{fill:none;stroke:#0028c8;stroke-linecap:round;stroke-miterlimit:10;}</style></defs><g id="Logo"><path class="cls-2" d="m72.75,54.49c-24.67,0-18.45,20.84,27.14,26.9,112.93,15.02,142.91-32.56,112.62-57.65"/><path class="cls-2" d="m40.9,40.73S185.97.12,185.97,42.56"/><path class="cls-2" d="m404.22,58.96c-16.24.5-27.91,36.85,13.91,34.83,91.67-4.43,97.96-72.56,55.39-73.53"/><path class="cls-2" d="m166.5,40.03c-6.18,19.76,15.91,32.44,26.54,35.74,20.72,6.42,42.91,6.39,64.29,4.06,20.65-2.25,39.71-6.92,58.46-16.01,19.72-9.56,37.45-23.36,57.68-31.79,13.6-5.67,24.25-6.42,30.78-7.42,19.62-3,66.98,1.82,66.98,20.38"/><path class="cls-1" d="m304.46,59.85c2.52,0,3.56,0,5.88.27,11.49,1.43,17.82,9.17,17.82,21.78s-6.96,21.47-18.15,22.87c-2.33.27-3.38.27-5.89.27h-13.07v-45.19h13.41m-9.33,42.2h8.66c2.36,0,4.27-.06,5.86-.35,8.83-1.43,13.89-8.65,13.89-19.8,0-10.49-4.94-17.31-13.54-18.71-1.62-.29-3.52-.36-5.88-.36h-9v39.21m9.33-43.09h-14.3v46.96h13.96c2.52,0,3.61,0,5.99-.27,10.9-1.36,18.93-9.94,18.93-23.75s-7.7-21.31-18.59-22.67c-2.38-.27-3.47-.27-5.99-.27h0Zm-8.45,42.2v-37.44h8.11c2.45,0,4.22.07,5.72.34,7.97,1.29,12.8,7.42,12.8,17.83,0,11.1-5.18,17.63-13.15,18.92-1.5.27-3.27.34-5.72.34h-7.77Z"/><path class="cls-1" d="m349.56,68.83c7.52,0,11.3,2.78,11.92,8.73.13,1.34.2,3.04.2,4.68v13.55c0,2.4.1,4.68.56,8.3h-4.05l-.52-4.39-.34-2.91-1.33,2.61-1.87,3.67c-2.03,1.34-4.7,1.97-8.37,1.97-6.53,0-10.76-3.69-10.76-9.39,0-4.94,2.01-11.5,19.41-11.5h3.2v-1.84c0-1.56,0-3.04-.14-4.43-.34-4.2-3-6.33-7.9-6.33s-7.89,2.56-8.56,7.62h-4.35c.86-6.5,5.62-10.34,12.91-10.34m-1.84,33.49c6.09,0,9.88-4.23,9.88-11.03v-4.5l-.82-.06c-1.3-.1-2.54-.15-3.69-.15-11.14,0-13.48,4.67-13.48,8.59,0,4.61,2.88,7.15,8.11,7.15m1.84-34.38c-7.97,0-13.35,4.42-13.89,12.12h6.13c.41-4.97,2.86-7.62,7.76-7.62s6.74,2.18,7.02,5.51c.14,1.36.14,2.79.14,4.36v.95h-2.32c-14.17,0-20.3,4.22-20.3,12.39,0,6.67,5.11,10.28,11.64,10.28,3.48,0,6.61-.54,9.06-2.25l1.98-3.88.61,5.17h5.86c-.54-4.02-.68-6.47-.68-9.19v-13.55c0-1.56-.07-3.33-.21-4.76-.61-5.92-4.22-9.53-12.8-9.53h0Zm-1.84,33.49c-4.43,0-7.22-1.9-7.22-6.26,0-5.4,4.77-7.7,12.59-7.7,1.14,0,2.35.05,3.62.14v3.67c0,6.54-3.54,10.14-8.99,10.14h0Z"/><path class="cls-1" d="m409.9,69.78c5.49,0,9.26,3,10.09,8.02.26,1.74.33,3.1.33,6.06v21.16h-4.08v-18.44c0-3.38-.08-5.3-.28-7.13-.59-4.4-3.46-6.83-8.1-6.83-5.83,0-8.79,5.2-8.79,15.45v16.95h-4.08v-18.44c0-3.36-.08-5.29-.28-7.13-.59-4.4-3.46-6.83-8.1-6.83-5.83,0-8.79,5.2-8.79,15.45v16.95h-4.08v-34.3h4.08v7.72l1.66-2.93,2.23-3.93c1.57-1.22,3.85-1.81,6.94-1.81,4.74,0,8.23,2.24,9.58,6.14l.57,1.66,1-1.44,3.13-4.52c1.58-1.23,3.86-1.83,6.97-1.83m0-.89c-3.2,0-5.79.61-7.63,2.11l-3.2,4.63c-1.36-3.95-4.9-6.74-10.42-6.74-3.2,0-5.79.61-7.63,2.11l-2.32,4.08v-5.24h-5.86v36.08h5.86v-17.83c0-10.96,3.34-14.56,7.9-14.56,4.09,0,6.67,1.97,7.22,6.06.21,1.84.27,3.81.27,7.01v19.33h5.86v-17.83c0-10.96,3.34-14.56,7.9-14.56,4.09,0,6.67,1.97,7.22,6.06.21,1.84.27,3.81.27,7.01v19.33h5.86v-22.05c0-2.93-.07-4.36-.34-6.19-.82-4.97-4.49-8.78-10.97-8.78h0Z"/><path class="cls-1" d="m442.19,68.83c7.29,0,12.06,3.84,12.91,10.34h-4.35c-.67-5.06-3.55-7.62-8.56-7.62s-7.56,2.13-7.9,6.31c-.14,1.41-.14,2.88-.14,4.45v1.84h3.2c17.4,0,19.41,6.56,19.41,11.5,0,5.7-4.22,9.39-10.76,9.39-3.67,0-6.34-.63-8.37-1.97l-1.87-3.67-1.33-2.61-.34,2.91-.52,4.39h-4.05c.46-3.62.56-5.9.56-8.3v-13.55c0-1.64.07-3.34.2-4.67.62-5.96,4.4-8.73,11.92-8.73m1.84,33.49c5.23,0,8.11-2.54,8.11-7.15,0-2.96-1.28-5.19-3.81-6.65-2.24-1.29-5.49-1.94-9.67-1.94h0c-1.15,0-2.39.05-3.69.15l-.82.06v4.5c0,6.8,3.79,11.03,9.88,11.03m-1.84-34.38c-8.58,0-12.19,3.61-12.8,9.53-.14,1.43-.21,3.2-.21,4.76v13.55c0,2.72-.14,5.17-.68,9.19h5.86l.61-5.17,1.98,3.88c2.45,1.7,5.58,2.25,9.06,2.25,6.54,0,11.64-3.61,11.64-10.28,0-8.17-6.13-12.39-20.3-12.39h-2.32v-.95c0-1.57,0-3,.14-4.36.27-3.33,2.18-5.51,7.02-5.51s7.35,2.65,7.76,7.62h6.13c-.54-7.69-5.93-12.12-13.89-12.12h0Zm1.84,33.49c-5.45,0-8.99-3.61-8.99-10.14v-3.67c1.27-.1,2.48-.14,3.62-.14,7.82,0,12.59,2.3,12.59,7.7,0,4.36-2.79,6.26-7.22,6.26h0Z"/><path class="cls-1" d="m481.9,68.83c3.02,0,6.42.9,7.99,2.11l2.31,3.43,1.63,2.41v-6.99h4.08v26.34c0,2.24,0,5.02-.07,6.98-.32,9.85-6.1,15.27-16.28,15.27-9.41,0-14.39-3.54-15.22-10.81h4.15c.63,5,4.86,8.1,11.08,8.1,7.45,0,11.9-4.33,12.2-11.88.07-1.72.07-2.87.07-3.98v-3.43l-1.62,2.3-2.65,3.78c-1.93,1.55-5.47,2.58-8.88,2.58-9.43,0-15.52-6.89-15.52-17.56,0-5.97,1.75-10.86,5.06-14.14,2.93-2.91,7.08-4.51,11.69-4.51m-.34,33.49c7.68,0,12.26-5.62,12.26-15.05v-1.97c0-9.5-5.99-13.75-11.92-13.75-7.37,0-12.13,5.99-12.13,15.25s4.63,15.52,11.79,15.52m.34-34.38c-9.33,0-17.64,6.19-17.64,19.54,0,10.55,5.86,18.45,16.41,18.45,3.68,0,7.49-1.16,9.54-2.86l2.72-3.88v.61c0,1.09,0,2.25-.07,3.95-.27,6.94-4.16,11.03-11.31,11.03-6.2,0-9.74-3.06-10.21-7.49l-.07-.61h-5.93l.07.68c.75,7.62,5.86,11.91,16.14,11.91s16.83-5.58,17.16-16.13c.07-1.97.07-4.76.07-7.01v-27.23h-5.86v4.97l-2.38-3.54c-1.84-1.5-5.65-2.38-8.65-2.38h0Zm-.34,33.49c-7.22,0-10.9-6.47-10.9-14.63,0-9.46,4.9-14.36,11.24-14.36,5.18,0,11.03,3.54,11.03,12.87v1.97c0,10.35-5.38,14.16-11.37,14.16h0Z"/><path class="cls-1" d="m523.32,68.83c8.99,0,14.57,6.55,14.57,17.08,0,.42,0,1.06-.06,1.9h-26.28l.05.94c.29,5.07,2.14,13.57,11.24,13.57,5.1,0,8.98-3.15,10.07-8.1h4.31c-1.55,6.8-6.95,10.81-14.65,10.81-9.72,0-15.52-6.72-15.52-17.97s6.54-18.24,16.27-18.24m-11.73,16.27h22.22l-.07-.95c-.59-8.12-4.34-12.6-10.56-12.6s-10.81,4.7-11.51,12.59l-.09.97m11.73-17.16c-9.88,0-17.16,7.42-17.16,19.13,0,12.73,7.02,18.85,16.41,18.85,7.43,0,14.3-3.88,15.73-12.59h-6.13c-.82,5.17-4.63,8.1-9.33,8.1-5.31,0-9.81-3.2-10.35-12.73h26.15c.14-1.29.14-2.25.14-2.79,0-10.55-5.52-17.97-15.46-17.97h0Zm-10.76,16.27c.68-7.69,4.9-11.77,10.62-11.77s9.13,4.29,9.67,11.77h-20.3Z"/><path class="cls-1" d="m311.54,1.33v42.02h25.3v2.97h-29.35V1.33h4.05m.89-.89h-5.83v46.77h31.13v-4.75h-25.3V.44h0Z"/><path class="cls-1" d="m358.69,10.28c12.5,0,16.95,9.31,16.95,18.02,0,5.02-1.47,9.52-4.13,12.67-2.97,3.5-7.4,5.35-12.82,5.35s-9.85-1.85-12.82-5.35c-2.66-3.15-4.13-7.65-4.13-12.67,0-8.71,4.45-18.02,16.95-18.02m0,33.35c7.5,0,12.35-6.02,12.35-15.33s-4.85-15.33-12.35-15.33-12.35,6.02-12.35,15.33,4.85,15.33,12.35,15.33m0-34.24c-12.21,0-17.84,8.74-17.84,18.91s5.63,18.91,17.84,18.91,17.84-8.81,17.84-18.91-5.63-18.91-17.84-18.91h0Zm0,33.35c-7.26,0-11.46-6.03-11.46-14.44s4.2-14.44,11.46-14.44,11.46,5.96,11.46,14.44-4.21,14.44-11.46,14.44h0Z"/><path class="cls-1" d="m393.55,10.28c5.17,0,11.52,1.72,13.06,9.74h-4.34c-1.09-4.62-4.24-7.05-9.13-7.05s-7.88,2.4-7.88,6.11c0,4.41,3.65,6.29,9.13,7.77,7.77,2.13,10.94,4.98,10.94,9.85,0,5.93-4.42,9.62-11.52,9.62-6.73,0-11.12-3.41-12.2-9.4h4.36c1.08,4.34,4.01,6.71,8.31,6.71s6.86-2.33,6.86-6.24c0-4.53-4.21-6.02-8.53-7.16-8.2-2.15-11.54-5.24-11.54-10.66,0-5.81,4.66-9.28,12.47-9.28m0-.89c-7.59,0-13.36,3.39-13.36,10.17,0,6.1,3.93,9.35,12.21,11.52,4.88,1.29,7.87,2.71,7.87,6.3,0,3.12-1.9,5.36-5.97,5.36s-6.78-2.51-7.6-6.71h-6.1c.75,6.57,5.15,11.18,13.23,11.18,7.39,0,12.41-3.93,12.41-10.5s-5.16-8.95-11.6-10.71c-6.04-1.63-8.48-3.46-8.48-6.91s3.12-5.22,6.99-5.22c4.14,0,7.46,1.83,8.41,7.05h6.1c-1.09-8.13-6.71-11.52-14.11-11.52h0Z"/><path class="cls-1" d="m424.68,10.28c5.17,0,11.52,1.72,13.06,9.74h-4.34c-1.09-4.62-4.24-7.05-9.13-7.05s-7.88,2.4-7.88,6.11c0,4.41,3.65,6.29,9.13,7.77,7.77,2.13,10.94,4.98,10.94,9.85,0,5.93-4.42,9.62-11.52,9.62-6.73,0-11.12-3.41-12.2-9.4h4.36c1.08,4.34,4.01,6.71,8.31,6.71s6.86-2.33,6.86-6.24c0-4.53-4.21-6.02-8.53-7.16-8.2-2.15-11.54-5.24-11.54-10.66,0-5.81,4.66-9.28,12.47-9.28m0-.89c-7.59,0-13.36,3.39-13.36,10.17,0,6.1,3.93,9.35,12.21,11.52,4.88,1.29,7.87,2.71,7.87,6.3,0,3.12-1.9,5.36-5.97,5.36s-6.78-2.51-7.6-6.71h-6.1c.75,6.57,5.15,11.18,13.23,11.18,7.39,0,12.41-3.93,12.41-10.5s-5.16-8.95-11.6-10.71c-6.04-1.63-8.48-3.46-8.48-6.91s3.12-5.22,6.99-5.22c4.14,0,7.46,1.83,8.41,7.05h6.1c-1.09-8.13-6.72-11.52-14.11-11.52h0Z"/><path class="cls-1" d="m503.7,1.33c2.73,0,4.74.15,6.93.51v2.68c-2.28-.39-4.32-.54-7.13-.54-6.38,0-10.34,3.46-10.34,9.03s3.05,8.69,9.31,9.03c1.2.07,2.67.07,4.09.07h4.8v-7.3h3.83v7.3h6.26v2.78h-6.26v20.24c-3.67.78-7.6,1.19-11.43,1.19-11.69,0-16.9-3.48-16.9-11.29,0-5.22,3.86-9.56,9.6-10.79l3.86-.83-3.84-.91c-4.88-1.15-7.79-4.58-7.79-9.16,0-7.07,6.17-12.01,15.01-12.01m.2,42.34c2.82,0,4.59-.16,6.76-.6l.71-.15v-18.03h-4.8c-1.46,0-2.72,0-4.05.13-9.72.85-11.18,6.1-11.18,9.16,0,6.65,3.76,9.49,12.56,9.49m-.2-43.23c-9.32,0-15.9,5.21-15.9,12.9,0,5.28,3.52,8.86,8.47,10.03-6.39,1.37-10.3,6.25-10.3,11.66,0,9.51,7.3,12.18,17.79,12.18,4.37,0,8.6-.52,12.32-1.37v-20.06h6.26v-4.56h-6.26v-7.3h-5.61v7.3h-3.91c-1.43,0-2.87,0-4.04-.07-4.82-.26-8.47-2.02-8.47-8.14,0-5.02,3.52-8.14,9.45-8.14,3.19,0,5.34.19,8.02.72V1.1c-2.48-.46-4.63-.65-7.82-.65h0Zm.2,42.34c-8.15,0-11.67-2.35-11.67-8.6,0-4.17,2.87-7.62,10.36-8.27,1.3-.13,2.54-.13,3.98-.13h3.91v16.41c-2.22.46-3.98.59-6.58.59h0Z"/><rect class="cls-1" x="181.86" y="59.17" width="5.83" height="5.82"/><path class="cls-1" d="m60.85,106.01h-6.44c-1.29-2.98-1.9-5.96-2.51-11.72-.55-4.81-2.37-7.99-6.98-8.33-1.09-.07-2.24-.07-3.32-.07h-8.81v20.12h-5.83v-46.74h15.32c2.37,0,4,0,6.1.27,6.78.88,11.66,4.61,11.66,12.47,0,6.16-4,9.69-8.33,11.04,3.8,1.76,5.62,6.03,6.03,10.7.54,6.1,1.22,9.75,3.12,12.26Zm-19.12-24.86c2.1,0,3.26,0,4.54-.14,4.34-.41,7.53-3.18,7.53-8.47s-2.51-7.59-6.85-8.27c-1.29-.2-2.58-.27-4.67-.27h-9.49v17.14h8.95Z"/><path class="cls-1" d="m138.77,86.57c0,13.28-8.27,19.44-17.55,19.44-2.99,0-6.78-.88-8.61-2.37l-2.37-3.52v19.24h-5.83v-50.19h5.83v5.76l2.71-3.86c2.04-1.69,5.83-2.85,9.49-2.85,10.5,0,16.33,7.86,16.33,18.36Zm-6.37.68c0-8.13-3.66-14.56-10.85-14.56-5.97,0-11.32,3.79-11.32,14.09v1.96c0,9.28,5.83,12.8,10.98,12.8,6.3,0,11.18-4.88,11.18-14.29Z"/><path class="cls-1" d="m143.94,95.92v-13.48c0-1.56.07-3.32.2-4.74.61-5.89,4.21-9.48,12.74-9.48,7.93,0,13.28,4.4,13.83,12.06h-6.1c-.41-4.94-2.85-7.59-7.73-7.59s-6.71,2.17-6.98,5.49c-.14,1.35-.14,2.78-.14,4.34v.95h2.31c14.1,0,20.2,4.2,20.2,12.33,0,6.64-5.08,10.23-11.59,10.23-3.46,0-6.58-.54-9.02-2.24l-1.96-3.86-.61,5.15h-5.83c.54-4,.67-6.43.67-9.14Zm5.83-4.47c0,6.5,3.53,10.09,8.95,10.09,4.4,0,7.18-1.9,7.18-6.23,0-6.16-6.23-8.27-16.13-7.52v3.66Z"/><path class="cls-1" d="m181.86,106.01v-35.9h5.83v35.9h-5.83Z"/><path class="cls-1" d="m97.02,88.88h-26.03c.54,9.48,5.01,12.67,10.3,12.67,4.68,0,8.47-2.91,9.29-8.06h6.1c-1.42,8.67-8.27,12.53-15.66,12.53-9.36,0-16.34-6.1-16.34-18.76,0-11.65,7.26-19.03,17.08-19.03s15.39,7.38,15.39,17.88c0,.54,0,1.49-.13,2.78Zm-25.96-4.47h20.2c-.55-7.45-3.73-11.72-9.63-11.72s-9.9,4.07-10.57,11.72Z"/><rect class="cls-1" x="228.27" y="70.3" width="5.82" height="5.82"/><rect class="cls-1" x="228.27" y="99.19" width="5.82" height="5.82"/><path class="cls-1" d="m214.52,69.77v4.4c-6.09-.41-10.7,3.18-10.7,11.38v20.46h-5.82v-35.9h5.82v5.62l3.25-4.81c1.49-1.02,3.31-1.63,5.01-1.63.95,0,1.76.14,2.44.47Z"/><path class="cls-1" d="m239.88,28.31c0,10.09-5.62,18.9-17.83,18.9s-17.83-8.81-17.83-18.9,5.63-18.9,17.83-18.9,17.83,8.74,17.83,18.9Zm-6.37,0c0-8.47-4.2-14.43-11.46-14.43s-11.45,5.96-11.45,14.43,4.2,14.43,11.45,14.43,11.46-6.03,11.46-14.43Z"/><path class="cls-1" d="m253.05,12.19v3.52h7.39v4.47h-7.39v27.03h-5.83v-27.03h-3.86v-4.47h3.86v-2.98c0-1.35.07-3.12.2-4.34.61-5.22,4.13-8.13,9.49-8.13,1.49,0,2.91.14,4.13.34v4.81c-4.4-.81-7.32.2-7.79,3.12-.14.95-.2,2.64-.2,3.66Z"/><path class="cls-1" d="m49.29,47.25h-7.66L31.05,6.91l-10.98,40.34h-7.73L0,.47h6.64l9.83,41.56L27.32,1.15h7.86l10.58,40.95L56.13.47h6.17l-13.02,46.78Z"/><path class="cls-1" d="m86.99,41.18l-1.97,3.86c-2.44,1.7-5.56,2.24-9.02,2.24-6.51,0-11.59-3.59-11.59-10.24,0-8.13,6.1-12.34,20.2-12.34h2.3v-.95c0-1.56,0-2.98-.14-4.34-.27-3.32-2.17-5.49-6.98-5.49s-7.32,2.64-7.73,7.59h-6.1c.54-7.66,5.9-12.07,13.83-12.07,8.54,0,12.13,3.59,12.75,9.49.14,1.42.2,3.19.2,4.75v13.49c0,2.71.13,5.15.68,9.15h-5.83l-.61-5.15Zm-.07-8.47v-3.66c-9.9-.75-16.13,1.36-16.13,7.53,0,4.34,2.78,6.24,7.19,6.24,5.42,0,8.95-3.59,8.95-10.1Z"/><path class="cls-1" d="m115.56,48.43c-2.92,7.59-6.78,11.19-12.61,11.19-1.29,0-2.1,0-2.98-.14v-4.75c.88.07,1.49.07,2.1.07,3.59,0,5.97-1.56,7.8-6.3l.47-1.29-14.3-37.76h6.58l10.71,31.59,10.64-31.59h6.37l-14.78,38.98Z"/><path class="cls-1" d="m133.79,36.07h6.1c.82,4.2,3.39,6.71,7.59,6.71s5.97-2.24,5.97-5.35c0-3.59-2.99-5.01-7.86-6.3-8.27-2.17-12.2-5.42-12.2-11.51,0-6.78,5.76-10.16,13.36-10.16s13.01,3.39,14.1,11.52h-6.1c-.95-5.22-4.27-7.05-8.41-7.05-3.86,0-6.98,1.76-6.98,5.22s2.44,5.28,8.47,6.91c6.44,1.76,11.59,4.4,11.59,10.7s-5.01,10.5-12.4,10.5c-8.07,0-12.47-4.61-13.22-11.18Z"/></g></svg>